<svg height="40" width="184" xmlns="http://www.w3.org/2000/svg"><g fill="#ff5f32" fill-rule="evenodd"><path d="M2.438 12.797c2.102-.305 3.534.149 4.735 1.517.591.673 1.059 1.966 1.086 3.526.029 1.61-.515 3.213-1.297 4.935-.783 1.722-1.46 4.75-1.245 7.17.166 1.88.907 3.183 2.02 3.812 1.7.96 3.01 1.39 3.93 1.293-1.246-2.453-1.769-4.727-1.568-6.821.133-1.395.506-3.014 1.253-4.296.25-.429.695-.929 1.337-1.5-.154-3.05.317-6.142 1.414-9.278 1.644-4.704 2.682-5.868 4.381-6.996 1.493-1.593 2.8-2.754 3.334-3.046.534-.291.624.04.408.314-.342.477-.538 1.376-.6 1.716-.063.34-.287.89.383 1.31.67.42 1.238.743 1.423 1.077.186.334.452 1.346.777 1.708.326.363.822.713.958.825.136.113.613.41.084 1.196-.53.786-.59.913-.888 1.26-.299.348-1.06.462-1.611.462-.55 0-1.505.17-1.374 1.17s.537 1.249.848 1.618c.31.37 1.677 1.297 1.677 3.304s-.106 3.174.147 3.937c.254.764.704 1.182 1.201 1.714.497.531.814 1.094.738 2.626a29.986 29.986 0 0 1-.61 4.488c-.385 1.744-.997 3.463-1.432 4.058-.89 1.22-1.422 1.1-2.283 1.1H11.56c-2.219.012-4.055-.572-5.51-1.753-2.18-1.77-2.379-3.559-2.49-5.6-.11-2.04.353-5.114 1.803-8.434 1.45-3.32.497-5.538-.678-6.165-1.175-.628-2.58-.492-2.77.435-.19.927-1.503.794-1.83 0-.327-.794.251-2.378 2.353-2.682z"/><path d="M45.917 37c.907 0 1.77-.09 2.592-.267a10.71 10.71 0 0 0 2.351-.802v-4.87c-.81.693-1.597 1.2-2.36 1.522a6.013 6.013 0 0 1-2.359.482c-1.727 0-3.03-.636-3.91-1.908-.88-1.272-1.32-3.155-1.32-5.65 0-2.504.44-4.392 1.32-5.664.88-1.272 2.183-1.908 3.91-1.908.81 0 1.597.16 2.36.482.762.322 1.549.83 2.36 1.522v-4.87a10.04 10.04 0 0 0-2.336-.802c-.832-.178-1.701-.267-2.608-.267-3.22 0-5.678.985-7.374 2.955-1.695 1.97-2.543 4.82-2.543 8.552 0 3.722.848 6.568 2.543 8.538C40.24 36.015 42.697 37 45.917 37zm13.585-.43l1.44-5.48h6.318l1.471 5.48h4.719L67.004 14.4h-5.775l-6.446 22.17zm6.846-9.088h-4.463l2.223-9.072zm19.764 9.087V18.232h6.063V14.4H75.33v3.83h6.063V36.57zm27.111 0c3.125 0 5.38-.48 6.767-1.44 1.386-.96 2.079-2.51 2.079-4.647 0-1.743-.461-3.099-1.384-4.069s-2.295-1.54-4.119-1.707c1.525-.13 2.682-.594 3.472-1.396.789-.802 1.183-1.916 1.183-3.341 0-1.861-.669-3.26-2.007-4.195-1.339-.935-3.335-1.403-5.99-1.403h-7.695V36.57zm0-13.556h-3.135V17.86h3.135c1.173 0 2.018.205 2.536.616.517.41.775 1.071.775 1.982s-.253 1.564-.76 1.96-1.356.594-2.55.594zm0 10.052h-3.135v-6.563h3.135c1.45 0 2.49.263 3.12.787.629.525.943 1.386.943 2.584 0 1.178-.301 2.004-.904 2.48-.602.475-1.655.712-3.159.712zm28.557 3.504v-3.86h-10.158v-5.806h9.198v-3.86h-9.198V18.26h10.158v-3.86h-14.877v22.168zm21.534 0v-3.86H153.22V14.4h-4.718v22.168zm20.686 0v-3.86h-10.093V14.4h-4.72v22.168z" fill-rule="nonzero"/></g></svg>